<svg xmlns="http://www.w3.org/2000/svg" width="1280" height="720" viewBox="0 0 1280 720" role="img" aria-label="Display Case &amp; Merchandiser Repair in Tyler, TX"><defs><radialGradient id="glow" cx="747" cy="-40" r="760" gradientUnits="userSpaceOnUse"><stop offset="0" stop-color="#2FBDDA" stop-opacity="0.30"/><stop offset="0.55" stop-color="#0B1520" stop-opacity="0"/></radialGradient><linearGradient id="vig" x1="0" y1="0" x2="0" y2="1"><stop offset="0.45" stop-color="#0B1520" stop-opacity="0"/><stop offset="1" stop-color="#070E15" stop-opacity="0.85"/></linearGradient></defs><rect width="1280" height="720" fill="#0B1520"/><rect width="1280" height="720" fill="url(#glow)"/><g fill="none" stroke="#4FD1E9" stroke-opacity="0.1" stroke-width="3"><rect x="835" y="150" width="300" height="440" rx="16"/><line x1="985" y1="150" x2="985" y2="590"/><line x1="835" y1="214" x2="1135" y2="214"/><rect x="915" y="320" width="9" height="76" rx="4.5" fill="#4FD1E9" fill-opacity="0.1" stroke="none"/><rect x="1046" y="320" width="9" height="76" rx="4.5" fill="#4FD1E9" fill-opacity="0.1" stroke="none"/></g><g stroke="#7FE3F2" stroke-opacity="0.053" stroke-width="2" stroke-linecap="round" transform="translate(562 619)"><line x1="0" y1="-16" x2="0" y2="16"/><line x1="-13.9" y1="-8.0" x2="13.9" y2="8.0"/><line x1="-13.9" y1="8.0" x2="13.9" y2="-8.0"/><line x1="0" y1="-16" x2="-4.0" y2="-12.0"/><line x1="0" y1="-16" x2="4.0" y2="-12.0"/></g><g stroke="#7FE3F2" stroke-opacity="0.092" stroke-width="2" stroke-linecap="round" transform="translate(1215 75)"><line x1="0" y1="-6" x2="0" y2="6"/><line x1="-5.2" y1="-3.0" x2="5.2" y2="3.0"/><line x1="-5.2" y1="3.0" x2="5.2" y2="-3.0"/><line x1="0" y1="-6" x2="-1.5" y2="-4.5"/><line x1="0" y1="-6" x2="1.5" y2="-4.5"/></g><g stroke="#7FE3F2" stroke-opacity="0.136" stroke-width="2" stroke-linecap="round" transform="translate(590 127)"><line x1="0" y1="-19" x2="0" y2="19"/><line x1="-16.5" y1="-9.5" x2="16.5" y2="9.5"/><line x1="-16.5" y1="9.5" x2="16.5" y2="-9.5"/><line x1="0" y1="-19" x2="-4.8" y2="-14.3"/><line x1="0" y1="-19" x2="4.8" y2="-14.3"/></g><g stroke="#7FE3F2" stroke-opacity="0.157" stroke-width="2" stroke-linecap="round" transform="translate(855 42)"><line x1="0" y1="-11" x2="0" y2="11"/><line x1="-9.6" y1="-5.5" x2="9.6" y2="5.5"/><line x1="-9.6" y1="5.5" x2="9.6" y2="-5.5"/><line x1="0" y1="-11" x2="-2.8" y2="-8.3"/><line x1="0" y1="-11" x2="2.8" y2="-8.3"/></g><g stroke="#7FE3F2" stroke-opacity="0.161" stroke-width="2" stroke-linecap="round" transform="translate(654 649)"><line x1="0" y1="-7" x2="0" y2="7"/><line x1="-6.1" y1="-3.5" x2="6.1" y2="3.5"/><line x1="-6.1" y1="3.5" x2="6.1" y2="-3.5"/><line x1="0" y1="-7" x2="-1.8" y2="-5.3"/><line x1="0" y1="-7" x2="1.8" y2="-5.3"/></g><g stroke="#7FE3F2" stroke-opacity="0.168" stroke-width="2" stroke-linecap="round" transform="translate(188 260)"><line x1="0" y1="-27" x2="0" y2="27"/><line x1="-23.5" y1="-13.5" x2="23.5" y2="13.5"/><line x1="-23.5" y1="13.5" x2="23.5" y2="-13.5"/><line x1="0" y1="-27" x2="-6.8" y2="-20.3"/><line x1="0" y1="-27" x2="6.8" y2="-20.3"/></g><g stroke="#7FE3F2" stroke-opacity="0.167" stroke-width="2" stroke-linecap="round" transform="translate(331 258)"><line x1="0" y1="-17" x2="0" y2="17"/><line x1="-14.8" y1="-8.5" x2="14.8" y2="8.5"/><line x1="-14.8" y1="8.5" x2="14.8" y2="-8.5"/><line x1="0" y1="-17" x2="-4.3" y2="-12.8"/><line x1="0" y1="-17" x2="4.3" y2="-12.8"/></g><g stroke="#7FE3F2" stroke-opacity="0.078" stroke-width="2" stroke-linecap="round" transform="translate(1131 369)"><line x1="0" y1="-18" x2="0" y2="18"/><line x1="-15.7" y1="-9.0" x2="15.7" y2="9.0"/><line x1="-15.7" y1="9.0" x2="15.7" y2="-9.0"/><line x1="0" y1="-18" x2="-4.5" y2="-13.5"/><line x1="0" y1="-18" x2="4.5" y2="-13.5"/></g><g stroke="#7FE3F2" stroke-opacity="0.124" stroke-width="2" stroke-linecap="round" transform="translate(511 333)"><line x1="0" y1="-29" x2="0" y2="29"/><line x1="-25.2" y1="-14.5" x2="25.2" y2="14.5"/><line x1="-25.2" y1="14.5" x2="25.2" y2="-14.5"/><line x1="0" y1="-29" x2="-7.3" y2="-21.8"/><line x1="0" y1="-29" x2="7.3" y2="-21.8"/></g><g stroke="#7FE3F2" stroke-opacity="0.103" stroke-width="2" stroke-linecap="round" transform="translate(912 424)"><line x1="0" y1="-10" x2="0" y2="10"/><line x1="-8.7" y1="-5.0" x2="8.7" y2="5.0"/><line x1="-8.7" y1="5.0" x2="8.7" y2="-5.0"/><line x1="0" y1="-10" x2="-2.5" y2="-7.5"/><line x1="0" y1="-10" x2="2.5" y2="-7.5"/></g><g stroke="#7FE3F2" stroke-opacity="0.117" stroke-width="2" stroke-linecap="round" transform="translate(660 259)"><line x1="0" y1="-8" x2="0" y2="8"/><line x1="-7.0" y1="-4.0" x2="7.0" y2="4.0"/><line x1="-7.0" y1="4.0" x2="7.0" y2="-4.0"/><line x1="0" y1="-8" x2="-2.0" y2="-6.0"/><line x1="0" y1="-8" x2="2.0" y2="-6.0"/></g><g stroke="#7FE3F2" stroke-opacity="0.087" stroke-width="2" stroke-linecap="round" transform="translate(1186 656)"><line x1="0" y1="-6" x2="0" y2="6"/><line x1="-5.2" y1="-3.0" x2="5.2" y2="3.0"/><line x1="-5.2" y1="3.0" x2="5.2" y2="-3.0"/><line x1="0" y1="-6" x2="-1.5" y2="-4.5"/><line x1="0" y1="-6" x2="1.5" y2="-4.5"/></g><g stroke="#7FE3F2" stroke-opacity="0.075" stroke-width="2" stroke-linecap="round" transform="translate(1095 574)"><line x1="0" y1="-13" x2="0" y2="13"/><line x1="-11.3" y1="-6.5" x2="11.3" y2="6.5"/><line x1="-11.3" y1="6.5" x2="11.3" y2="-6.5"/><line x1="0" y1="-13" x2="-3.3" y2="-9.8"/><line x1="0" y1="-13" x2="3.3" y2="-9.8"/></g><g stroke="#7FE3F2" stroke-opacity="0.083" stroke-width="2" stroke-linecap="round" transform="translate(53 241)"><line x1="0" y1="-10" x2="0" y2="10"/><line x1="-8.7" y1="-5.0" x2="8.7" y2="5.0"/><line x1="-8.7" y1="5.0" x2="8.7" y2="-5.0"/><line x1="0" y1="-10" x2="-2.5" y2="-7.5"/><line x1="0" y1="-10" x2="2.5" y2="-7.5"/></g><g stroke="#7FE3F2" stroke-opacity="0.120" stroke-width="2" stroke-linecap="round" transform="translate(1063 679)"><line x1="0" y1="-28" x2="0" y2="28"/><line x1="-24.4" y1="-14.0" x2="24.4" y2="14.0"/><line x1="-24.4" y1="14.0" x2="24.4" y2="-14.0"/><line x1="0" y1="-28" x2="-7.0" y2="-21.0"/><line x1="0" y1="-28" x2="7.0" y2="-21.0"/></g><g stroke="#7FE3F2" stroke-opacity="0.128" stroke-width="2" stroke-linecap="round" transform="translate(1215 226)"><line x1="0" y1="-16" x2="0" y2="16"/><line x1="-13.9" y1="-8.0" x2="13.9" y2="8.0"/><line x1="-13.9" y1="8.0" x2="13.9" y2="-8.0"/><line x1="0" y1="-16" x2="-4.0" y2="-12.0"/><line x1="0" y1="-16" x2="4.0" y2="-12.0"/></g><rect width="1280" height="720" fill="url(#vig)"/></svg>