<svg xmlns="http://www.w3.org/2000/svg" width="1280" height="720" viewBox="0 0 1280 720" role="img" aria-label="Emergency Refrigeration Service in Arp, TX"><defs><radialGradient id="glow" cx="779" cy="-40" r="760" gradientUnits="userSpaceOnUse"><stop offset="0" stop-color="#2FBDDA" stop-opacity="0.30"/><stop offset="0.55" stop-color="#0B1520" stop-opacity="0"/></radialGradient><linearGradient id="vig" x1="0" y1="0" x2="0" y2="1"><stop offset="0.45" stop-color="#0B1520" stop-opacity="0"/><stop offset="1" stop-color="#070E15" stop-opacity="0.85"/></linearGradient></defs><rect width="1280" height="720" fill="#0B1520"/><rect width="1280" height="720" fill="url(#glow)"/><g fill="none" stroke="#4FD1E9" stroke-opacity="0.1" stroke-width="3"><rect x="835" y="150" width="300" height="440" rx="16"/><line x1="985" y1="150" x2="985" y2="590"/><line x1="835" y1="214" x2="1135" y2="214"/><rect x="915" y="320" width="9" height="76" rx="4.5" fill="#4FD1E9" fill-opacity="0.1" stroke="none"/><rect x="1046" y="320" width="9" height="76" rx="4.5" fill="#4FD1E9" fill-opacity="0.1" stroke="none"/></g><g stroke="#7FE3F2" stroke-opacity="0.058" stroke-width="2" stroke-linecap="round" transform="translate(457 504)"><line x1="0" y1="-30" x2="0" y2="30"/><line x1="-26.1" y1="-15.0" x2="26.1" y2="15.0"/><line x1="-26.1" y1="15.0" x2="26.1" y2="-15.0"/><line x1="0" y1="-30" x2="-7.5" y2="-22.5"/><line x1="0" y1="-30" x2="7.5" y2="-22.5"/></g><g stroke="#7FE3F2" stroke-opacity="0.144" stroke-width="2" stroke-linecap="round" transform="translate(853 402)"><line x1="0" y1="-24" x2="0" y2="24"/><line x1="-20.9" y1="-12.0" x2="20.9" y2="12.0"/><line x1="-20.9" y1="12.0" x2="20.9" y2="-12.0"/><line x1="0" y1="-24" x2="-6.0" y2="-18.0"/><line x1="0" y1="-24" x2="6.0" y2="-18.0"/></g><g stroke="#7FE3F2" stroke-opacity="0.139" stroke-width="2" stroke-linecap="round" transform="translate(185 107)"><line x1="0" y1="-14" x2="0" y2="14"/><line x1="-12.2" y1="-7.0" x2="12.2" y2="7.0"/><line x1="-12.2" y1="7.0" x2="12.2" y2="-7.0"/><line x1="0" y1="-14" x2="-3.5" y2="-10.5"/><line x1="0" y1="-14" x2="3.5" y2="-10.5"/></g><g stroke="#7FE3F2" stroke-opacity="0.082" stroke-width="2" stroke-linecap="round" transform="translate(645 625)"><line x1="0" y1="-13" x2="0" y2="13"/><line x1="-11.3" y1="-6.5" x2="11.3" y2="6.5"/><line x1="-11.3" y1="6.5" x2="11.3" y2="-6.5"/><line x1="0" y1="-13" x2="-3.3" y2="-9.8"/><line x1="0" y1="-13" x2="3.3" y2="-9.8"/></g><g stroke="#7FE3F2" stroke-opacity="0.053" stroke-width="2" stroke-linecap="round" transform="translate(350 423)"><line x1="0" y1="-20" x2="0" y2="20"/><line x1="-17.4" y1="-10.0" x2="17.4" y2="10.0"/><line x1="-17.4" y1="10.0" x2="17.4" y2="-10.0"/><line x1="0" y1="-20" x2="-5.0" y2="-15.0"/><line x1="0" y1="-20" x2="5.0" y2="-15.0"/></g><g stroke="#7FE3F2" stroke-opacity="0.094" stroke-width="2" stroke-linecap="round" transform="translate(1255 492)"><line x1="0" y1="-28" x2="0" y2="28"/><line x1="-24.4" y1="-14.0" x2="24.4" y2="14.0"/><line x1="-24.4" y1="14.0" x2="24.4" y2="-14.0"/><line x1="0" y1="-28" x2="-7.0" y2="-21.0"/><line x1="0" y1="-28" x2="7.0" y2="-21.0"/></g><g stroke="#7FE3F2" stroke-opacity="0.066" stroke-width="2" stroke-linecap="round" transform="translate(470 78)"><line x1="0" y1="-7" x2="0" y2="7"/><line x1="-6.1" y1="-3.5" x2="6.1" y2="3.5"/><line x1="-6.1" y1="3.5" x2="6.1" y2="-3.5"/><line x1="0" y1="-7" x2="-1.8" y2="-5.3"/><line x1="0" y1="-7" x2="1.8" y2="-5.3"/></g><g stroke="#7FE3F2" stroke-opacity="0.073" stroke-width="2" stroke-linecap="round" transform="translate(1048 713)"><line x1="0" y1="-25" x2="0" y2="25"/><line x1="-21.8" y1="-12.5" x2="21.8" y2="12.5"/><line x1="-21.8" y1="12.5" x2="21.8" y2="-12.5"/><line x1="0" y1="-25" x2="-6.3" y2="-18.8"/><line x1="0" y1="-25" x2="6.3" y2="-18.8"/></g><g stroke="#7FE3F2" stroke-opacity="0.082" stroke-width="2" stroke-linecap="round" transform="translate(1251 663)"><line x1="0" y1="-9" x2="0" y2="9"/><line x1="-7.8" y1="-4.5" x2="7.8" y2="4.5"/><line x1="-7.8" y1="4.5" x2="7.8" y2="-4.5"/><line x1="0" y1="-9" x2="-2.3" y2="-6.8"/><line x1="0" y1="-9" x2="2.3" y2="-6.8"/></g><g stroke="#7FE3F2" stroke-opacity="0.063" stroke-width="2" stroke-linecap="round" transform="translate(603 156)"><line x1="0" y1="-16" x2="0" y2="16"/><line x1="-13.9" y1="-8.0" x2="13.9" y2="8.0"/><line x1="-13.9" y1="8.0" x2="13.9" y2="-8.0"/><line x1="0" y1="-16" x2="-4.0" y2="-12.0"/><line x1="0" y1="-16" x2="4.0" y2="-12.0"/></g><g stroke="#7FE3F2" stroke-opacity="0.169" stroke-width="2" stroke-linecap="round" transform="translate(97 113)"><line x1="0" y1="-25" x2="0" y2="25"/><line x1="-21.8" y1="-12.5" x2="21.8" y2="12.5"/><line x1="-21.8" y1="12.5" x2="21.8" y2="-12.5"/><line x1="0" y1="-25" x2="-6.3" y2="-18.8"/><line x1="0" y1="-25" x2="6.3" y2="-18.8"/></g><g stroke="#7FE3F2" stroke-opacity="0.079" stroke-width="2" stroke-linecap="round" transform="translate(695 487)"><line x1="0" y1="-19" x2="0" y2="19"/><line x1="-16.5" y1="-9.5" x2="16.5" y2="9.5"/><line x1="-16.5" y1="9.5" x2="16.5" y2="-9.5"/><line x1="0" y1="-19" x2="-4.8" y2="-14.3"/><line x1="0" y1="-19" x2="4.8" y2="-14.3"/></g><g stroke="#7FE3F2" stroke-opacity="0.117" stroke-width="2" stroke-linecap="round" transform="translate(765 318)"><line x1="0" y1="-20" x2="0" y2="20"/><line x1="-17.4" y1="-10.0" x2="17.4" y2="10.0"/><line x1="-17.4" y1="10.0" x2="17.4" y2="-10.0"/><line x1="0" y1="-20" x2="-5.0" y2="-15.0"/><line x1="0" y1="-20" x2="5.0" y2="-15.0"/></g><g stroke="#7FE3F2" stroke-opacity="0.144" stroke-width="2" stroke-linecap="round" transform="translate(1275 27)"><line x1="0" y1="-15" x2="0" y2="15"/><line x1="-13.1" y1="-7.5" x2="13.1" y2="7.5"/><line x1="-13.1" y1="7.5" x2="13.1" y2="-7.5"/><line x1="0" y1="-15" x2="-3.8" y2="-11.3"/><line x1="0" y1="-15" x2="3.8" y2="-11.3"/></g><g stroke="#7FE3F2" stroke-opacity="0.067" stroke-width="2" stroke-linecap="round" transform="translate(747 609)"><line x1="0" y1="-26" x2="0" y2="26"/><line x1="-22.6" y1="-13.0" x2="22.6" y2="13.0"/><line x1="-22.6" y1="13.0" x2="22.6" y2="-13.0"/><line x1="0" y1="-26" x2="-6.5" y2="-19.5"/><line x1="0" y1="-26" x2="6.5" y2="-19.5"/></g><g stroke="#7FE3F2" stroke-opacity="0.128" stroke-width="2" stroke-linecap="round" transform="translate(286 424)"><line x1="0" y1="-19" x2="0" y2="19"/><line x1="-16.5" y1="-9.5" x2="16.5" y2="9.5"/><line x1="-16.5" y1="9.5" x2="16.5" y2="-9.5"/><line x1="0" y1="-19" x2="-4.8" y2="-14.3"/><line x1="0" y1="-19" x2="4.8" y2="-14.3"/></g><rect width="1280" height="720" fill="url(#vig)"/></svg>