<svg xmlns="http://www.w3.org/2000/svg" width="1280" height="720" viewBox="0 0 1280 720" role="img" aria-label="Refrigeration Preventive Maintenance in Winona, TX"><defs><radialGradient id="glow" cx="843" cy="-40" r="760" gradientUnits="userSpaceOnUse"><stop offset="0" stop-color="#2FBDDA" stop-opacity="0.30"/><stop offset="0.55" stop-color="#0B1520" stop-opacity="0"/></radialGradient><linearGradient id="vig" x1="0" y1="0" x2="0" y2="1"><stop offset="0.45" stop-color="#0B1520" stop-opacity="0"/><stop offset="1" stop-color="#070E15" stop-opacity="0.85"/></linearGradient></defs><rect width="1280" height="720" fill="#0B1520"/><rect width="1280" height="720" fill="url(#glow)"/><g fill="none" stroke="#4FD1E9" stroke-opacity="0.1" stroke-width="3"><rect x="835" y="150" width="300" height="440" rx="16"/><line x1="985" y1="150" x2="985" y2="590"/><line x1="835" y1="214" x2="1135" y2="214"/><rect x="915" y="320" width="9" height="76" rx="4.5" fill="#4FD1E9" fill-opacity="0.1" stroke="none"/><rect x="1046" y="320" width="9" height="76" rx="4.5" fill="#4FD1E9" fill-opacity="0.1" stroke="none"/></g><g stroke="#7FE3F2" stroke-opacity="0.075" stroke-width="2" stroke-linecap="round" transform="translate(92 209)"><line x1="0" y1="-25" x2="0" y2="25"/><line x1="-21.8" y1="-12.5" x2="21.8" y2="12.5"/><line x1="-21.8" y1="12.5" x2="21.8" y2="-12.5"/><line x1="0" y1="-25" x2="-6.3" y2="-18.8"/><line x1="0" y1="-25" x2="6.3" y2="-18.8"/></g><g stroke="#7FE3F2" stroke-opacity="0.090" stroke-width="2" stroke-linecap="round" transform="translate(893 266)"><line x1="0" y1="-30" x2="0" y2="30"/><line x1="-26.1" y1="-15.0" x2="26.1" y2="15.0"/><line x1="-26.1" y1="15.0" x2="26.1" y2="-15.0"/><line x1="0" y1="-30" x2="-7.5" y2="-22.5"/><line x1="0" y1="-30" x2="7.5" y2="-22.5"/></g><g stroke="#7FE3F2" stroke-opacity="0.115" stroke-width="2" stroke-linecap="round" transform="translate(505 692)"><line x1="0" y1="-21" x2="0" y2="21"/><line x1="-18.3" y1="-10.5" x2="18.3" y2="10.5"/><line x1="-18.3" y1="10.5" x2="18.3" y2="-10.5"/><line x1="0" y1="-21" x2="-5.3" y2="-15.8"/><line x1="0" y1="-21" x2="5.3" y2="-15.8"/></g><g stroke="#7FE3F2" stroke-opacity="0.125" stroke-width="2" stroke-linecap="round" transform="translate(454 536)"><line x1="0" y1="-26" x2="0" y2="26"/><line x1="-22.6" y1="-13.0" x2="22.6" y2="13.0"/><line x1="-22.6" y1="13.0" x2="22.6" y2="-13.0"/><line x1="0" y1="-26" x2="-6.5" y2="-19.5"/><line x1="0" y1="-26" x2="6.5" y2="-19.5"/></g><g stroke="#7FE3F2" stroke-opacity="0.069" stroke-width="2" stroke-linecap="round" transform="translate(92 301)"><line x1="0" y1="-9" x2="0" y2="9"/><line x1="-7.8" y1="-4.5" x2="7.8" y2="4.5"/><line x1="-7.8" y1="4.5" x2="7.8" y2="-4.5"/><line x1="0" y1="-9" x2="-2.3" y2="-6.8"/><line x1="0" y1="-9" x2="2.3" y2="-6.8"/></g><g stroke="#7FE3F2" stroke-opacity="0.125" stroke-width="2" stroke-linecap="round" transform="translate(977 361)"><line x1="0" y1="-9" x2="0" y2="9"/><line x1="-7.8" y1="-4.5" x2="7.8" y2="4.5"/><line x1="-7.8" y1="4.5" x2="7.8" y2="-4.5"/><line x1="0" y1="-9" x2="-2.3" y2="-6.8"/><line x1="0" y1="-9" x2="2.3" y2="-6.8"/></g><g stroke="#7FE3F2" stroke-opacity="0.069" stroke-width="2" stroke-linecap="round" transform="translate(617 127)"><line x1="0" y1="-17" x2="0" y2="17"/><line x1="-14.8" y1="-8.5" x2="14.8" y2="8.5"/><line x1="-14.8" y1="8.5" x2="14.8" y2="-8.5"/><line x1="0" y1="-17" x2="-4.3" y2="-12.8"/><line x1="0" y1="-17" x2="4.3" y2="-12.8"/></g><g stroke="#7FE3F2" stroke-opacity="0.101" stroke-width="2" stroke-linecap="round" transform="translate(836 4)"><line x1="0" y1="-9" x2="0" y2="9"/><line x1="-7.8" y1="-4.5" x2="7.8" y2="4.5"/><line x1="-7.8" y1="4.5" x2="7.8" y2="-4.5"/><line x1="0" y1="-9" x2="-2.3" y2="-6.8"/><line x1="0" y1="-9" x2="2.3" y2="-6.8"/></g><g stroke="#7FE3F2" stroke-opacity="0.154" stroke-width="2" stroke-linecap="round" transform="translate(1172 693)"><line x1="0" y1="-17" x2="0" y2="17"/><line x1="-14.8" y1="-8.5" x2="14.8" y2="8.5"/><line x1="-14.8" y1="8.5" x2="14.8" y2="-8.5"/><line x1="0" y1="-17" x2="-4.3" y2="-12.8"/><line x1="0" y1="-17" x2="4.3" y2="-12.8"/></g><g stroke="#7FE3F2" stroke-opacity="0.067" stroke-width="2" stroke-linecap="round" transform="translate(568 246)"><line x1="0" y1="-7" x2="0" y2="7"/><line x1="-6.1" y1="-3.5" x2="6.1" y2="3.5"/><line x1="-6.1" y1="3.5" x2="6.1" y2="-3.5"/><line x1="0" y1="-7" x2="-1.8" y2="-5.3"/><line x1="0" y1="-7" x2="1.8" y2="-5.3"/></g><g stroke="#7FE3F2" stroke-opacity="0.145" stroke-width="2" stroke-linecap="round" transform="translate(119 215)"><line x1="0" y1="-24" x2="0" y2="24"/><line x1="-20.9" y1="-12.0" x2="20.9" y2="12.0"/><line x1="-20.9" y1="12.0" x2="20.9" y2="-12.0"/><line x1="0" y1="-24" x2="-6.0" y2="-18.0"/><line x1="0" y1="-24" x2="6.0" y2="-18.0"/></g><g stroke="#7FE3F2" stroke-opacity="0.168" stroke-width="2" stroke-linecap="round" transform="translate(509 150)"><line x1="0" y1="-28" x2="0" y2="28"/><line x1="-24.4" y1="-14.0" x2="24.4" y2="14.0"/><line x1="-24.4" y1="14.0" x2="24.4" y2="-14.0"/><line x1="0" y1="-28" x2="-7.0" y2="-21.0"/><line x1="0" y1="-28" x2="7.0" y2="-21.0"/></g><g stroke="#7FE3F2" stroke-opacity="0.134" stroke-width="2" stroke-linecap="round" transform="translate(748 256)"><line x1="0" y1="-29" x2="0" y2="29"/><line x1="-25.2" y1="-14.5" x2="25.2" y2="14.5"/><line x1="-25.2" y1="14.5" x2="25.2" y2="-14.5"/><line x1="0" y1="-29" x2="-7.3" y2="-21.8"/><line x1="0" y1="-29" x2="7.3" y2="-21.8"/></g><g stroke="#7FE3F2" stroke-opacity="0.079" stroke-width="2" stroke-linecap="round" transform="translate(311 609)"><line x1="0" y1="-17" x2="0" y2="17"/><line x1="-14.8" y1="-8.5" x2="14.8" y2="8.5"/><line x1="-14.8" y1="8.5" x2="14.8" y2="-8.5"/><line x1="0" y1="-17" x2="-4.3" y2="-12.8"/><line x1="0" y1="-17" x2="4.3" y2="-12.8"/></g><g stroke="#7FE3F2" stroke-opacity="0.169" stroke-width="2" stroke-linecap="round" transform="translate(1040 637)"><line x1="0" y1="-30" x2="0" y2="30"/><line x1="-26.1" y1="-15.0" x2="26.1" y2="15.0"/><line x1="-26.1" y1="15.0" x2="26.1" y2="-15.0"/><line x1="0" y1="-30" x2="-7.5" y2="-22.5"/><line x1="0" y1="-30" x2="7.5" y2="-22.5"/></g><g stroke="#7FE3F2" stroke-opacity="0.160" stroke-width="2" stroke-linecap="round" transform="translate(1047 487)"><line x1="0" y1="-20" x2="0" y2="20"/><line x1="-17.4" y1="-10.0" x2="17.4" y2="10.0"/><line x1="-17.4" y1="10.0" x2="17.4" y2="-10.0"/><line x1="0" y1="-20" x2="-5.0" y2="-15.0"/><line x1="0" y1="-20" x2="5.0" y2="-15.0"/></g><rect width="1280" height="720" fill="url(#vig)"/></svg>