<svg xmlns="http://www.w3.org/2000/svg" width="1280" height="720" viewBox="0 0 1280 720" role="img" aria-label="Refrigeration Installation in Lindale, TX"><defs><radialGradient id="glow" cx="931" cy="-40" r="760" gradientUnits="userSpaceOnUse"><stop offset="0" stop-color="#2FBDDA" stop-opacity="0.30"/><stop offset="0.55" stop-color="#0B1520" stop-opacity="0"/></radialGradient><linearGradient id="vig" x1="0" y1="0" x2="0" y2="1"><stop offset="0.45" stop-color="#0B1520" stop-opacity="0"/><stop offset="1" stop-color="#070E15" stop-opacity="0.85"/></linearGradient></defs><rect width="1280" height="720" fill="#0B1520"/><rect width="1280" height="720" fill="url(#glow)"/><g fill="none" stroke="#4FD1E9" stroke-opacity="0.1" stroke-width="3"><rect x="835" y="150" width="300" height="440" rx="16"/><line x1="985" y1="150" x2="985" y2="590"/><line x1="835" y1="214" x2="1135" y2="214"/><rect x="915" y="320" width="9" height="76" rx="4.5" fill="#4FD1E9" fill-opacity="0.1" stroke="none"/><rect x="1046" y="320" width="9" height="76" rx="4.5" fill="#4FD1E9" fill-opacity="0.1" stroke="none"/></g><g stroke="#7FE3F2" stroke-opacity="0.157" stroke-width="2" stroke-linecap="round" transform="translate(329 353)"><line x1="0" y1="-22" x2="0" y2="22"/><line x1="-19.1" y1="-11.0" x2="19.1" y2="11.0"/><line x1="-19.1" y1="11.0" x2="19.1" y2="-11.0"/><line x1="0" y1="-22" x2="-5.5" y2="-16.5"/><line x1="0" y1="-22" x2="5.5" y2="-16.5"/></g><g stroke="#7FE3F2" stroke-opacity="0.100" stroke-width="2" stroke-linecap="round" transform="translate(538 718)"><line x1="0" y1="-12" x2="0" y2="12"/><line x1="-10.4" y1="-6.0" x2="10.4" y2="6.0"/><line x1="-10.4" y1="6.0" x2="10.4" y2="-6.0"/><line x1="0" y1="-12" x2="-3.0" y2="-9.0"/><line x1="0" y1="-12" x2="3.0" y2="-9.0"/></g><g stroke="#7FE3F2" stroke-opacity="0.134" stroke-width="2" stroke-linecap="round" transform="translate(969 202)"><line x1="0" y1="-15" x2="0" y2="15"/><line x1="-13.1" y1="-7.5" x2="13.1" y2="7.5"/><line x1="-13.1" y1="7.5" x2="13.1" y2="-7.5"/><line x1="0" y1="-15" x2="-3.8" y2="-11.3"/><line x1="0" y1="-15" x2="3.8" y2="-11.3"/></g><g stroke="#7FE3F2" stroke-opacity="0.079" stroke-width="2" stroke-linecap="round" transform="translate(655 205)"><line x1="0" y1="-25" x2="0" y2="25"/><line x1="-21.8" y1="-12.5" x2="21.8" y2="12.5"/><line x1="-21.8" y1="12.5" x2="21.8" y2="-12.5"/><line x1="0" y1="-25" x2="-6.3" y2="-18.8"/><line x1="0" y1="-25" x2="6.3" y2="-18.8"/></g><g stroke="#7FE3F2" stroke-opacity="0.096" stroke-width="2" stroke-linecap="round" transform="translate(293 437)"><line x1="0" y1="-23" x2="0" y2="23"/><line x1="-20.0" y1="-11.5" x2="20.0" y2="11.5"/><line x1="-20.0" y1="11.5" x2="20.0" y2="-11.5"/><line x1="0" y1="-23" x2="-5.8" y2="-17.3"/><line x1="0" y1="-23" x2="5.8" y2="-17.3"/></g><g stroke="#7FE3F2" stroke-opacity="0.122" stroke-width="2" stroke-linecap="round" transform="translate(1171 379)"><line x1="0" y1="-7" x2="0" y2="7"/><line x1="-6.1" y1="-3.5" x2="6.1" y2="3.5"/><line x1="-6.1" y1="3.5" x2="6.1" y2="-3.5"/><line x1="0" y1="-7" x2="-1.8" y2="-5.3"/><line x1="0" y1="-7" x2="1.8" y2="-5.3"/></g><g stroke="#7FE3F2" stroke-opacity="0.148" stroke-width="2" stroke-linecap="round" transform="translate(666 630)"><line x1="0" y1="-14" x2="0" y2="14"/><line x1="-12.2" y1="-7.0" x2="12.2" y2="7.0"/><line x1="-12.2" y1="7.0" x2="12.2" y2="-7.0"/><line x1="0" y1="-14" x2="-3.5" y2="-10.5"/><line x1="0" y1="-14" x2="3.5" y2="-10.5"/></g><g stroke="#7FE3F2" stroke-opacity="0.135" stroke-width="2" stroke-linecap="round" transform="translate(1092 538)"><line x1="0" y1="-23" x2="0" y2="23"/><line x1="-20.0" y1="-11.5" x2="20.0" y2="11.5"/><line x1="-20.0" y1="11.5" x2="20.0" y2="-11.5"/><line x1="0" y1="-23" x2="-5.8" y2="-17.3"/><line x1="0" y1="-23" x2="5.8" y2="-17.3"/></g><g stroke="#7FE3F2" stroke-opacity="0.121" stroke-width="2" stroke-linecap="round" transform="translate(1171 24)"><line x1="0" y1="-18" x2="0" y2="18"/><line x1="-15.7" y1="-9.0" x2="15.7" y2="9.0"/><line x1="-15.7" y1="9.0" x2="15.7" y2="-9.0"/><line x1="0" y1="-18" x2="-4.5" y2="-13.5"/><line x1="0" y1="-18" x2="4.5" y2="-13.5"/></g><g stroke="#7FE3F2" stroke-opacity="0.129" stroke-width="2" stroke-linecap="round" transform="translate(810 611)"><line x1="0" y1="-26" x2="0" y2="26"/><line x1="-22.6" y1="-13.0" x2="22.6" y2="13.0"/><line x1="-22.6" y1="13.0" x2="22.6" y2="-13.0"/><line x1="0" y1="-26" x2="-6.5" y2="-19.5"/><line x1="0" y1="-26" x2="6.5" y2="-19.5"/></g><g stroke="#7FE3F2" stroke-opacity="0.077" stroke-width="2" stroke-linecap="round" transform="translate(201 419)"><line x1="0" y1="-22" x2="0" y2="22"/><line x1="-19.1" y1="-11.0" x2="19.1" y2="11.0"/><line x1="-19.1" y1="11.0" x2="19.1" y2="-11.0"/><line x1="0" y1="-22" x2="-5.5" y2="-16.5"/><line x1="0" y1="-22" x2="5.5" y2="-16.5"/></g><g stroke="#7FE3F2" stroke-opacity="0.060" stroke-width="2" stroke-linecap="round" transform="translate(521 196)"><line x1="0" y1="-8" x2="0" y2="8"/><line x1="-7.0" y1="-4.0" x2="7.0" y2="4.0"/><line x1="-7.0" y1="4.0" x2="7.0" y2="-4.0"/><line x1="0" y1="-8" x2="-2.0" y2="-6.0"/><line x1="0" y1="-8" x2="2.0" y2="-6.0"/></g><g stroke="#7FE3F2" stroke-opacity="0.158" stroke-width="2" stroke-linecap="round" transform="translate(753 345)"><line x1="0" y1="-10" x2="0" y2="10"/><line x1="-8.7" y1="-5.0" x2="8.7" y2="5.0"/><line x1="-8.7" y1="5.0" x2="8.7" y2="-5.0"/><line x1="0" y1="-10" x2="-2.5" y2="-7.5"/><line x1="0" y1="-10" x2="2.5" y2="-7.5"/></g><g stroke="#7FE3F2" stroke-opacity="0.087" stroke-width="2" stroke-linecap="round" transform="translate(837 278)"><line x1="0" y1="-10" x2="0" y2="10"/><line x1="-8.7" y1="-5.0" x2="8.7" y2="5.0"/><line x1="-8.7" y1="5.0" x2="8.7" y2="-5.0"/><line x1="0" y1="-10" x2="-2.5" y2="-7.5"/><line x1="0" y1="-10" x2="2.5" y2="-7.5"/></g><g stroke="#7FE3F2" stroke-opacity="0.140" stroke-width="2" stroke-linecap="round" transform="translate(28 559)"><line x1="0" y1="-16" x2="0" y2="16"/><line x1="-13.9" y1="-8.0" x2="13.9" y2="8.0"/><line x1="-13.9" y1="8.0" x2="13.9" y2="-8.0"/><line x1="0" y1="-16" x2="-4.0" y2="-12.0"/><line x1="0" y1="-16" x2="4.0" y2="-12.0"/></g><g stroke="#7FE3F2" stroke-opacity="0.084" stroke-width="2" stroke-linecap="round" transform="translate(245 6)"><line x1="0" y1="-26" x2="0" y2="26"/><line x1="-22.6" y1="-13.0" x2="22.6" y2="13.0"/><line x1="-22.6" y1="13.0" x2="22.6" y2="-13.0"/><line x1="0" y1="-26" x2="-6.5" y2="-19.5"/><line x1="0" y1="-26" x2="6.5" y2="-19.5"/></g><rect width="1280" height="720" fill="url(#vig)"/></svg>