<svg xmlns="http://www.w3.org/2000/svg" width="1280" height="720" viewBox="0 0 1280 720" role="img" aria-label="Refrigeration Preventive Maintenance in Flint, TX"><defs><radialGradient id="glow" cx="806" cy="-40" r="760" gradientUnits="userSpaceOnUse"><stop offset="0" stop-color="#2FBDDA" stop-opacity="0.30"/><stop offset="0.55" stop-color="#0B1520" stop-opacity="0"/></radialGradient><linearGradient id="vig" x1="0" y1="0" x2="0" y2="1"><stop offset="0.45" stop-color="#0B1520" stop-opacity="0"/><stop offset="1" stop-color="#070E15" stop-opacity="0.85"/></linearGradient></defs><rect width="1280" height="720" fill="#0B1520"/><rect width="1280" height="720" fill="url(#glow)"/><g fill="none" stroke="#4FD1E9" stroke-opacity="0.1" stroke-width="3"><rect x="835" y="150" width="300" height="440" rx="16"/><line x1="985" y1="150" x2="985" y2="590"/><line x1="835" y1="214" x2="1135" y2="214"/><rect x="915" y="320" width="9" height="76" rx="4.5" fill="#4FD1E9" fill-opacity="0.1" stroke="none"/><rect x="1046" y="320" width="9" height="76" rx="4.5" fill="#4FD1E9" fill-opacity="0.1" stroke="none"/></g><g stroke="#7FE3F2" stroke-opacity="0.085" stroke-width="2" stroke-linecap="round" transform="translate(572 425)"><line x1="0" y1="-28" x2="0" y2="28"/><line x1="-24.4" y1="-14.0" x2="24.4" y2="14.0"/><line x1="-24.4" y1="14.0" x2="24.4" y2="-14.0"/><line x1="0" y1="-28" x2="-7.0" y2="-21.0"/><line x1="0" y1="-28" x2="7.0" y2="-21.0"/></g><g stroke="#7FE3F2" stroke-opacity="0.105" stroke-width="2" stroke-linecap="round" transform="translate(759 135)"><line x1="0" y1="-18" x2="0" y2="18"/><line x1="-15.7" y1="-9.0" x2="15.7" y2="9.0"/><line x1="-15.7" y1="9.0" x2="15.7" y2="-9.0"/><line x1="0" y1="-18" x2="-4.5" y2="-13.5"/><line x1="0" y1="-18" x2="4.5" y2="-13.5"/></g><g stroke="#7FE3F2" stroke-opacity="0.071" stroke-width="2" stroke-linecap="round" transform="translate(816 231)"><line x1="0" y1="-9" x2="0" y2="9"/><line x1="-7.8" y1="-4.5" x2="7.8" y2="4.5"/><line x1="-7.8" y1="4.5" x2="7.8" y2="-4.5"/><line x1="0" y1="-9" x2="-2.3" y2="-6.8"/><line x1="0" y1="-9" x2="2.3" y2="-6.8"/></g><g stroke="#7FE3F2" stroke-opacity="0.071" stroke-width="2" stroke-linecap="round" transform="translate(797 2)"><line x1="0" y1="-27" x2="0" y2="27"/><line x1="-23.5" y1="-13.5" x2="23.5" y2="13.5"/><line x1="-23.5" y1="13.5" x2="23.5" y2="-13.5"/><line x1="0" y1="-27" x2="-6.8" y2="-20.3"/><line x1="0" y1="-27" x2="6.8" y2="-20.3"/></g><g stroke="#7FE3F2" stroke-opacity="0.158" stroke-width="2" stroke-linecap="round" transform="translate(72 224)"><line x1="0" y1="-18" x2="0" y2="18"/><line x1="-15.7" y1="-9.0" x2="15.7" y2="9.0"/><line x1="-15.7" y1="9.0" x2="15.7" y2="-9.0"/><line x1="0" y1="-18" x2="-4.5" y2="-13.5"/><line x1="0" y1="-18" x2="4.5" y2="-13.5"/></g><g stroke="#7FE3F2" stroke-opacity="0.082" stroke-width="2" stroke-linecap="round" transform="translate(347 165)"><line x1="0" y1="-25" x2="0" y2="25"/><line x1="-21.8" y1="-12.5" x2="21.8" y2="12.5"/><line x1="-21.8" y1="12.5" x2="21.8" y2="-12.5"/><line x1="0" y1="-25" x2="-6.3" y2="-18.8"/><line x1="0" y1="-25" x2="6.3" y2="-18.8"/></g><g stroke="#7FE3F2" stroke-opacity="0.097" stroke-width="2" stroke-linecap="round" transform="translate(975 25)"><line x1="0" y1="-8" x2="0" y2="8"/><line x1="-7.0" y1="-4.0" x2="7.0" y2="4.0"/><line x1="-7.0" y1="4.0" x2="7.0" y2="-4.0"/><line x1="0" y1="-8" x2="-2.0" y2="-6.0"/><line x1="0" y1="-8" x2="2.0" y2="-6.0"/></g><g stroke="#7FE3F2" stroke-opacity="0.086" stroke-width="2" stroke-linecap="round" transform="translate(580 169)"><line x1="0" y1="-7" x2="0" y2="7"/><line x1="-6.1" y1="-3.5" x2="6.1" y2="3.5"/><line x1="-6.1" y1="3.5" x2="6.1" y2="-3.5"/><line x1="0" y1="-7" x2="-1.8" y2="-5.3"/><line x1="0" y1="-7" x2="1.8" y2="-5.3"/></g><g stroke="#7FE3F2" stroke-opacity="0.135" stroke-width="2" stroke-linecap="round" transform="translate(227 292)"><line x1="0" y1="-27" x2="0" y2="27"/><line x1="-23.5" y1="-13.5" x2="23.5" y2="13.5"/><line x1="-23.5" y1="13.5" x2="23.5" y2="-13.5"/><line x1="0" y1="-27" x2="-6.8" y2="-20.3"/><line x1="0" y1="-27" x2="6.8" y2="-20.3"/></g><g stroke="#7FE3F2" stroke-opacity="0.087" stroke-width="2" stroke-linecap="round" transform="translate(578 26)"><line x1="0" y1="-12" x2="0" y2="12"/><line x1="-10.4" y1="-6.0" x2="10.4" y2="6.0"/><line x1="-10.4" y1="6.0" x2="10.4" y2="-6.0"/><line x1="0" y1="-12" x2="-3.0" y2="-9.0"/><line x1="0" y1="-12" x2="3.0" y2="-9.0"/></g><g stroke="#7FE3F2" stroke-opacity="0.109" stroke-width="2" stroke-linecap="round" transform="translate(640 637)"><line x1="0" y1="-24" x2="0" y2="24"/><line x1="-20.9" y1="-12.0" x2="20.9" y2="12.0"/><line x1="-20.9" y1="12.0" x2="20.9" y2="-12.0"/><line x1="0" y1="-24" x2="-6.0" y2="-18.0"/><line x1="0" y1="-24" x2="6.0" y2="-18.0"/></g><g stroke="#7FE3F2" stroke-opacity="0.131" stroke-width="2" stroke-linecap="round" transform="translate(0 29)"><line x1="0" y1="-8" x2="0" y2="8"/><line x1="-7.0" y1="-4.0" x2="7.0" y2="4.0"/><line x1="-7.0" y1="4.0" x2="7.0" y2="-4.0"/><line x1="0" y1="-8" x2="-2.0" y2="-6.0"/><line x1="0" y1="-8" x2="2.0" y2="-6.0"/></g><g stroke="#7FE3F2" stroke-opacity="0.079" stroke-width="2" stroke-linecap="round" transform="translate(485 192)"><line x1="0" y1="-27" x2="0" y2="27"/><line x1="-23.5" y1="-13.5" x2="23.5" y2="13.5"/><line x1="-23.5" y1="13.5" x2="23.5" y2="-13.5"/><line x1="0" y1="-27" x2="-6.8" y2="-20.3"/><line x1="0" y1="-27" x2="6.8" y2="-20.3"/></g><g stroke="#7FE3F2" stroke-opacity="0.052" stroke-width="2" stroke-linecap="round" transform="translate(456 593)"><line x1="0" y1="-15" x2="0" y2="15"/><line x1="-13.1" y1="-7.5" x2="13.1" y2="7.5"/><line x1="-13.1" y1="7.5" x2="13.1" y2="-7.5"/><line x1="0" y1="-15" x2="-3.8" y2="-11.3"/><line x1="0" y1="-15" x2="3.8" y2="-11.3"/></g><g stroke="#7FE3F2" stroke-opacity="0.052" stroke-width="2" stroke-linecap="round" transform="translate(558 83)"><line x1="0" y1="-7" x2="0" y2="7"/><line x1="-6.1" y1="-3.5" x2="6.1" y2="3.5"/><line x1="-6.1" y1="3.5" x2="6.1" y2="-3.5"/><line x1="0" y1="-7" x2="-1.8" y2="-5.3"/><line x1="0" y1="-7" x2="1.8" y2="-5.3"/></g><g stroke="#7FE3F2" stroke-opacity="0.152" stroke-width="2" stroke-linecap="round" transform="translate(436 499)"><line x1="0" y1="-9" x2="0" y2="9"/><line x1="-7.8" y1="-4.5" x2="7.8" y2="4.5"/><line x1="-7.8" y1="4.5" x2="7.8" y2="-4.5"/><line x1="0" y1="-9" x2="-2.3" y2="-6.8"/><line x1="0" y1="-9" x2="2.3" y2="-6.8"/></g><rect width="1280" height="720" fill="url(#vig)"/></svg>